#N canvas 1463 231 718 449 12;
#X obj 89 167 osc~;
#X obj 89 286 *~;
#X obj 89 319 dac~;
#X msg 150 140 \$1 100;
#X obj 150 169 line~;
#X obj 89 200 *~;
#X obj 150 226 r mute_toggle @hv_param 0 1 1 bool;
#X obj 150 255 r mute_momentary @hv_param 0 1 0 trig;
#X obj 89 93 * 190;
#X obj 89 118 + 100;
#X obj 89 62 r Freq @raw freq 0 10 3.8;
#X obj 150 111 r Gain @raw gain 0 1 0.5;
#X obj 384 186 s Send_Gain @raw send_gain 0 1 0.5;
#X floatatom 334 185 5 0 0 0 - - -;
#X obj 382 149 snapshot~;
#X obj 495 37 tgl 15 0 empty empty empty 17 7 0 10 -262144 -1 -1 1
1;
#X msg 434 55 280;
#X obj 382 100 osc~;
#X obj 456 115 metro;
#X obj 434 80 / 5;
#X obj 495 9 loadbang;
#X obj 24 139 adc~;
#X obj 25 169 dac~;
#X connect 0 0 5 0;
#X connect 1 0 2 0;
#X connect 1 0 2 1;
#X connect 3 0 4 0;
#X connect 4 0 5 1;
#X connect 5 0 1 0;
#X connect 6 0 1 1;
#X connect 7 0 1 1;
#X connect 8 0 9 0;
#X connect 9 0 0 0;
#X connect 10 0 8 0;
#X connect 11 0 3 0;
#X connect 14 0 13 0;
#X connect 14 0 12 0;
#X connect 15 0 18 0;
#X connect 15 0 16 0;
#X connect 16 0 17 0;
#X connect 16 0 19 0;
#X connect 17 0 14 0;
#X connect 18 0 14 0;
#X connect 19 0 18 1;
#X connect 20 0 15 0;
#X connect 21 0 22 0;
#X connect 21 1 22 1;
